<?xml version="1.0" encoding="utf-8"?>
<!-- Generator: Adobe Illustrator 24.0.1, SVG Export Plug-In . SVG Version: 6.00 Build 0)  -->
<svg version="1.1" id="Layer_1" xmlns="http://www.w3.org/2000/svg" xmlns:xlink="http://www.w3.org/1999/xlink" x="0px" y="0px"
	 viewBox="0 0 566.93 566.93" style="enable-background:new 0 0 566.93 566.93;" xml:space="preserve">
<style type="text/css">
	.st0{fill:url(#SVGID_1_);}
	.st1{fill:url(#SVGID_2_);}
	.st2{fill:url(#SVGID_3_);}
	.st3{fill:url(#SVGID_4_);}
	.st4{fill:url(#SVGID_5_);}
	.st5{fill:url(#SVGID_6_);}
	.st6{fill:url(#SVGID_7_);}
	.st7{fill:url(#SVGID_8_);}
	.st8{fill:url(#SVGID_9_);}
	.st9{fill:url(#SVGID_10_);}
	.st10{fill:url(#SVGID_11_);}
	.st11{fill:url(#SVGID_12_);}
	.st12{fill:url(#SVGID_13_);}
	.st13{fill:url(#SVGID_14_);}
	.st14{fill:url(#SVGID_15_);}
	.st15{fill:url(#SVGID_16_);}
	.st16{fill:url(#SVGID_17_);}
	.st17{fill:url(#SVGID_18_);}
	.st18{fill:url(#SVGID_19_);}
</style>
<g>
	<g>
		<linearGradient id="SVGID_1_" gradientUnits="userSpaceOnUse" x1="146.3208" y1="321.598" x2="426.8763" y2="321.598">
			<stop  offset="0" style="stop-color:#006991"/>
			<stop  offset="1" style="stop-color:#1D94AB"/>
		</linearGradient>
		<path class="st0" d="M246.27,188.71c40.65-21.81,81.9-24.38,121.18,1.61c46.18,30.55,63.13,76.02,58.76,129.95
			c-1.98,24.46-9.57,47.44-23.02,68.33c-25.6,39.76-63.04,62.43-107.55,74.84c-20.14,5.62-40.8,7.89-61.7,7.95
			c-25.27,0.07-50.54,0.17-75.82,0.22c-8.09,0.02-11.87-2.68-11.81-8.27c0.06-5.72,4.55-9.49,12-9.54
			c29.09-0.18,58.23,0.75,87.27-0.57c48.61-2.2,92.52-17.31,127.59-52.62c20.32-20.46,32.4-45.11,36.27-74.01
			c2.67-19.93,2.29-39.44-4.12-58.45c-12.14-35.99-37.54-59.51-72.12-73.33C305.05,183.57,275.93,181.61,246.27,188.71z"/>
		<linearGradient id="SVGID_2_" gradientUnits="userSpaceOnUse" x1="190.0964" y1="251.9874" x2="502.776" y2="251.9874">
			<stop  offset="0" style="stop-color:#006991"/>
			<stop  offset="1" style="stop-color:#1D94AB"/>
		</linearGradient>
		<path class="st1" d="M257.05,317.09c-22.26,3.83-37.04-5.39-48.58-20.64c-27.17-35.92-23.9-85.69,7.75-118.36
			c18.95-19.56,42.01-31.43,68.83-37.22c59.82-12.91,112.41,2.63,158.56,40.53c37.02,30.41,54.72,71.63,58.6,118.9
			c1.57,19.13-0.2,38.17-3.94,57.01c-0.33,1.66-0.7,3.34-1.3,4.91c-1.6,4.13-4.77,6.04-9.05,5.12c-4.06-0.87-6.12-3.93-5.82-7.99
			c0.32-4.21,1.22-8.39,1.9-12.57c9.34-57.62-4.48-108.46-45.77-150.37c-24.52-24.88-55.41-38.03-89.85-42.62
			c-27.58-3.68-54.72-1.59-80.66,9.13c-21.75,8.98-40.76,21.89-53.1,42.56c-23.62,39.57-4.97,93.19,37.94,110.01
			C253.5,315.84,254.47,316.16,257.05,317.09z"/>
		<linearGradient id="SVGID_3_" gradientUnits="userSpaceOnUse" x1="185.4538" y1="437.4702" x2="462.2018" y2="437.4702">
			<stop  offset="0" style="stop-color:#006991"/>
			<stop  offset="1" style="stop-color:#1D94AB"/>
		</linearGradient>
		<path class="st2" d="M218.48,498.72c56.15-0.52,104.72-10.88,149.23-36.47c37.23-21.4,64.41-51.51,77.26-93.32
			c2.66-8.64,7.24-12.42,12.46-10.8c4.5,1.4,5.99,6.38,3.73,15.04c-10.37,39.78-33.56,70.37-67.52,93.03
			c-37.6,25.1-78.68,41.48-123.49,47.88c-24.21,3.45-48.55,4.94-72.75-0.62c-2.06-0.47-4.16-0.94-6.09-1.77
			c-2.94-1.27-6.26-2.82-5.81-6.65c0.43-3.69,3.8-4.96,7-5.54C202.82,497.61,213.27,498.94,218.48,498.72z"/>
		<linearGradient id="SVGID_4_" gradientUnits="userSpaceOnUse" x1="309.8715" y1="454.503" x2="532.7172" y2="454.503">
			<stop  offset="0" style="stop-color:#006991"/>
			<stop  offset="1" style="stop-color:#1D94AB"/>
		</linearGradient>
		<path class="st3" d="M320.57,541.44c-6.08-0.05-10.36-3.62-10.67-8.63c-0.38-6.04,3.26-8.82,8.61-9.98
			c18.48-4,36.74-8.9,54.25-16.05c53.99-22.04,98.96-55.28,129.5-105.97c4.91-8.16,8.93-16.87,13.18-25.41
			c3.22-6.47,7.86-9.37,12.89-7.04c5.97,2.77,4.58,7.99,3.21,12.72c-4.95,17.13-13.96,32.27-23.84,46.89
			c-14.72,21.8-32.97,40.34-53.8,56.29c-38.15,29.22-80.76,48.47-128.26,56.54C323.75,541.11,321.84,541.28,320.57,541.44z"/>
		<linearGradient id="SVGID_5_" gradientUnits="userSpaceOnUse" x1="11.5499" y1="263.8269" x2="72.6888" y2="263.8269">
			<stop  offset="0" style="stop-color:#006991"/>
			<stop  offset="1" style="stop-color:#1D94AB"/>
		</linearGradient>
		<path class="st4" d="M11.55,286.76c0.3-51.59,13.93-92.96,37.96-131.18c1.47-2.34,2.99-4.64,4.4-7.01
			c4.22-7.13,9.83-9.61,14.93-6.54c5.01,3.01,5.14,8.4,0.31,15.53c-13.31,19.63-23.84,40.68-30.75,63.35
			c-15.54,50.97-11.27,100.61,10.92,148.87c0.53,1.16,1.14,2.28,1.63,3.45c2.51,5.93,1.35,10.24-3.34,12.49
			c-5.58,2.69-10.67,0.74-13.45-5.4c-6.58-14.51-11.95-29.46-15.84-44.91C13.8,317.44,11.8,299.12,11.55,286.76z"/>
		<linearGradient id="SVGID_6_" gradientUnits="userSpaceOnUse" x1="45.1846" y1="345.6675" x2="166.5177" y2="345.6675">
			<stop  offset="0" style="stop-color:#006991"/>
			<stop  offset="1" style="stop-color:#1D94AB"/>
		</linearGradient>
		<path class="st5" d="M159.98,435.64c-4.57-0.39-8.34-2.44-11.95-4.62c-4.78-2.9-9.69-3.75-15.2-2.8
			c-10.52,1.8-21.18,1.17-31.79,1.29c-5.31,0.06-9.55-2.26-10.09-7.66c-0.54-5.42,3.14-8.49,8.43-9.37c2.72-0.45,5.48-0.66,8.2-1.14
			c2.15-0.38,5.18,0.52,5.98-2.34c0.63-2.27-1.57-3.81-3.11-5.2c-7.45-6.72-13.93-14.32-19.86-22.36
			c-22.71-30.8-38.12-64.56-41-103.24c-0.22-2.94-1.59-5.11-2.9-7.55c-2.46-4.59-2.01-9.1,2.22-12.59
			c3.86-3.18,10.71-3.16,14.16,0.21c3.61,3.52,5.58,7.82,2.12,12.47c-2.39,3.21-1.62,6.58-1.12,9.79
			c9.67,62.45,39.31,111.36,96.43,141.47c3.6,1.9,6.78,3.96,5.86,8.66C165.68,434.07,163.02,435.31,159.98,435.64z"/>
		<linearGradient id="SVGID_7_" gradientUnits="userSpaceOnUse" x1="107.3663" y1="333.6044" x2="332.1014" y2="333.6044">
			<stop  offset="0" style="stop-color:#006991"/>
			<stop  offset="1" style="stop-color:#1D94AB"/>
		</linearGradient>
		<path class="st6" d="M332.1,355.14c-4.45,9.23-9.99,16.16-17.33,21.62c-22.16,16.45-47.55,20.47-74.29,18.88
			c-72.58-4.32-115.57-57.35-131.05-108.37c-0.74-2.43-1.34-4.91-1.83-7.4c-0.73-3.71,0.12-7.06,3.99-8.3
			c4.49-1.43,5.97,2.15,7.09,5.43c4.42,12.88,9.65,25.39,16.69,37.08c24.29,40.32,60.11,62.25,106.74,67.1
			c32.45,3.37,61.23-5.76,87.17-24.97C329.72,355.89,330.34,355.8,332.1,355.14z"/>
		<linearGradient id="SVGID_8_" gradientUnits="userSpaceOnUse" x1="159.6072" y1="184.9242" x2="262.7664" y2="184.9242">
			<stop  offset="0" style="stop-color:#006991"/>
			<stop  offset="1" style="stop-color:#1D94AB"/>
		</linearGradient>
		<path class="st7" d="M159.61,227.26c2.44-47.53,26.85-83.15,70.36-106.33c6.52-3.48,13.57-6,20.46-8.74
			c5.06-2.01,9.52-0.83,11.61,4.41c2.15,5.4-0.68,9.08-5.71,10.94c-15.87,5.84-30.6,13.57-43.34,24.86
			c-26.15,23.17-40.72,51.23-36.98,87.07c0.37,3.58,1.09,7.13,1.38,10.71c0.34,4.31-1.24,7.62-5.95,8.26
			c-4.76,0.65-8.36-0.99-9.73-6.01c-0.28-1.02-0.58-2.06-0.65-3.11C160.59,242.77,160.18,236.2,159.61,227.26z"/>
		<linearGradient id="SVGID_9_" gradientUnits="userSpaceOnUse" x1="306.6118" y1="67.9662" x2="445.7526" y2="67.9662">
			<stop  offset="0" style="stop-color:#006991"/>
			<stop  offset="1" style="stop-color:#1D94AB"/>
		</linearGradient>
		<path class="st8" d="M314.94,38.7c41.31,3.6,79.52,15.98,114.76,37.39c4.16,2.53,8.24,5.23,12.19,8.08
			c3.46,2.5,5.18,5.92,2.65,9.91c-2.5,3.96-6.39,3.58-10.22,2.17c-1.18-0.43-2.24-1.2-3.31-1.88
			C396,71.86,358.09,57.49,316.43,53.68c-1.05-0.1-2.13-0.21-3.14-0.49c-4.4-1.22-7.17-3.94-6.6-8.72
			C307.28,39.59,311.07,38.77,314.94,38.7z"/>
		<linearGradient id="SVGID_10_" gradientUnits="userSpaceOnUse" x1="414.4222" y1="270.7896" x2="462.5537" y2="270.7896">
			<stop  offset="0" style="stop-color:#006991"/>
			<stop  offset="1" style="stop-color:#1D94AB"/>
		</linearGradient>
		<path class="st9" d="M462.5,312.5c0.01,3.81,0.13,7.63-0.02,11.44c-0.24,6.2-3.65,9.74-8.8,9.38c-4.76-0.33-7.76-4.07-7.43-9.97
			c1.65-28.88-5.02-55.94-17.9-81.58c-3.42-6.8-7.52-13.26-11.43-19.8c-2.6-4.34-4.26-8.64,0.66-12.35
			c3.84-2.9,9.84-1.13,13.05,3.88C449.96,243.69,462.59,276.06,462.5,312.5z"/>
		<linearGradient id="SVGID_11_" gradientUnits="userSpaceOnUse" x1="123.1584" y1="67.7532" x2="225.5199" y2="67.7532">
			<stop  offset="0" style="stop-color:#006991"/>
			<stop  offset="1" style="stop-color:#1D94AB"/>
		</linearGradient>
		<path class="st10" d="M225.52,49.24c-0.2,3.81-2.32,6.79-6.92,7.88c-28.83,6.82-55.05,19.4-79.52,35.91
			c-5.75,3.88-11.64,3.13-14.58-1.44c-2.82-4.39-1.11-9.48,4.28-13.43c25.69-18.84,54.13-31.5,85.32-37.9
			C220.81,38.89,225.48,42.41,225.52,49.24z"/>
		<linearGradient id="SVGID_12_" gradientUnits="userSpaceOnUse" x1="69.2715" y1="112.0577" x2="116.2483" y2="112.0577">
			<stop  offset="0" style="stop-color:#006991"/>
			<stop  offset="1" style="stop-color:#1D94AB"/>
		</linearGradient>
		<path class="st11" d="M93.55,134.95c-13.58,0.04-24.47-10.46-24.28-23.42c0.18-12.23,10.89-22.56,23.19-22.36
			c13.63,0.22,23.9,10.52,23.79,23.86C116.15,125.07,105.96,134.91,93.55,134.95z"/>
		<linearGradient id="SVGID_13_" gradientUnits="userSpaceOnUse" x1="242.362" y1="47.7455" x2="287.5464" y2="47.7455">
			<stop  offset="0" style="stop-color:#006991"/>
			<stop  offset="1" style="stop-color:#1D94AB"/>
		</linearGradient>
		<path class="st12" d="M264.86,70c-12.88,0.11-22.49-9.46-22.49-22.4c0-12.02,10.09-21.96,22.44-22.12
			c11.81-0.15,22.85,10.54,22.75,22.02C287.43,60.1,277.55,69.9,264.86,70z"/>
		<linearGradient id="SVGID_14_" gradientUnits="userSpaceOnUse" x1="94.1395" y1="468.3594" x2="127.6497" y2="468.3594">
			<stop  offset="0" style="stop-color:#006991"/>
			<stop  offset="1" style="stop-color:#1D94AB"/>
		</linearGradient>
		<path class="st13" d="M94.15,467.7c0.32-9.32,7.72-16.13,17.19-15.84c9.54,0.29,16.73,8.02,16.29,17.52
			c-0.42,9.12-7.68,15.78-16.86,15.48C100.91,484.54,93.82,477.22,94.15,467.7z"/>
		<linearGradient id="SVGID_15_" gradientUnits="userSpaceOnUse" x1="45.202" y1="424.1535" x2="78.1531" y2="424.1535">
			<stop  offset="0" style="stop-color:#006991"/>
			<stop  offset="1" style="stop-color:#1D94AB"/>
		</linearGradient>
		<path class="st14" d="M78.15,424.65c-0.09,9.31-6.95,16.13-16.07,15.97c-9.6-0.16-17.11-8.07-16.87-17.77
			c0.22-8.87,7.44-15.34,16.94-15.16C71.23,407.86,78.24,415.29,78.15,424.65z"/>
		<linearGradient id="SVGID_16_" gradientUnits="userSpaceOnUse" x1="463.0819" y1="112.3631" x2="515.7856" y2="112.3631">
			<stop  offset="0" style="stop-color:#006991"/>
			<stop  offset="1" style="stop-color:#1D94AB"/>
		</linearGradient>
		<path class="st15" d="M489.85,104.25c5.73,0,11.46,0,17.19,0c5.34,0,8.6,2.72,8.75,7.99c0.15,5.38-3.19,8.16-8.46,8.21
			c-11.67,0.11-23.34,0.15-35.01,0c-5.49-0.07-9.28-3.8-9.23-8.45c0.05-4.86,3.56-7.75,9.58-7.79c5.73-0.04,11.46-0.01,17.19-0.01
			C489.85,104.21,489.85,104.23,489.85,104.25z"/>
		<linearGradient id="SVGID_17_" gradientUnits="userSpaceOnUse" x1="67.4212" y1="302.1194" x2="386.6765" y2="302.1194">
			<stop  offset="0" style="stop-color:#006991"/>
			<stop  offset="1" style="stop-color:#1D94AB"/>
		</linearGradient>
		<path class="st16" d="M382.42,267.37c-1.31-5.13-2.56-10.32-5.55-14.83c-2.69-4.05-6.41-5.75-10.95-3.72
			c-4.3,1.92-4.4,5.91-3.56,9.86c0.84,3.94,2.04,7.8,2.94,11.72c12.45,53.9-12.43,105.55-61.89,129.21
			c-34.78,16.64-71.36,12.47-105.92,3.87c-35.94-8.95-63.69-33.29-83.55-65.43c-20.28-32.8-24.91-68.41-20.23-105.98
			c0.82-6.57,2.44-10.98,9.08-14.25c9.91-4.88,13.95-15.73,11.85-26.54c-1.61-8.32-8.89-15.42-17.65-17.21
			c-9.84-2.01-21.73,3.52-26.57,12.36c-5.14,9.39-3.8,20.39,4.71,27.78c4.73,4.11,5.48,8.33,4.92,13.9
			c-0.91,9.07-1.33,18.2-1.96,27.3c-0.04,40.17,10.86,73.94,33.23,103.53c21.27,28.13,49.32,47.02,81.63,59.78
			c38.47,15.2,77.48,16.42,115.8-0.07C368.18,393.08,398.45,330.13,382.42,267.37z M80.7,197.42c0.11-5.68,4.81-10.32,10.63-10.5
			c5.93-0.19,10.64,4.27,10.71,10.13c0.07,5.37-5.67,11.23-10.99,11.22C85.58,208.26,80.59,203.03,80.7,197.42z"/>
		<linearGradient id="SVGID_18_" gradientUnits="userSpaceOnUse" x1="277.6969" y1="213.6143" x2="555.3792" y2="213.6143">
			<stop  offset="0" style="stop-color:#006991"/>
			<stop  offset="1" style="stop-color:#1D94AB"/>
		</linearGradient>
		<path class="st17" d="M547.85,314.32c-2.76-2.61-5.86-4.68-6.17-9.14c-0.82-11.66-3.11-23.13-5.35-34.58
			c-12.2-62.31-43.65-111.9-97.6-146.3c-31.32-19.97-65.69-31.46-102.58-35.52c-3.68-0.4-7.4-0.25-10.21-3.96
			c-5.56-7.32-12.7-11.87-21.86-9.94c-19.17,0.37-29.86,13.54-25.36,30.42c2.8,10.53,10.05,17.23,20.16,18.98
			c11.68,2.03,22-2.43,28.36-12.87c2.93-4.81,6.17-6.34,11.4-5.67c48.25,6.14,90.81,24.78,125.56,59.12
			c38.48,38.03,55.44,85.99,61.52,138.63c0.48,4.17-1.96,5.45-4.63,7.3c-12.84,8.9-14.33,26.52-3.18,36.22
			c9.56,8.31,23.76,7.52,32.06-1.79C557.9,336.34,557.04,323.01,547.85,314.32z M303.31,111.77c-7.58-0.01-13.06-5.74-12.85-13.44
			c0.2-7.29,5.49-12.14,13.06-11.97c7.53,0.17,13.97,6.3,13.66,13C316.89,105.63,310.03,111.78,303.31,111.77z M532.81,341.2
			c-5.3,0.24-10.08-4.39-10.28-9.95c-0.21-5.95,4.24-10.57,10.2-10.58c5.71-0.01,10.43,4.33,10.54,9.71
			C543.39,335.7,538.3,340.96,532.81,341.2z"/>
		<linearGradient id="SVGID_19_" gradientUnits="userSpaceOnUse" x1="123.696" y1="224.0941" x2="345.3173" y2="224.0941">
			<stop  offset="0" style="stop-color:#006991"/>
			<stop  offset="1" style="stop-color:#1D94AB"/>
		</linearGradient>
		<path class="st18" d="M335.97,240.51c-27.81-53.61-113.59-35.82-103.28,23.31c11.33,65.02,95.35,49.26,81.61,0.1
			c-1.81-6.63-6.77-19.87-22.07-24.64c-9.45-2.92-15.66,8.33-3.23,11.43c8.99,2.25,14.39,9.51,14.02,19.61
			c-0.31,8.45-7.28,21.01-22.97,21.23c-24.18,0.34-33.28-21.76-34.04-35.87c-1.18-21.99,17.7-35.93,38.48-35.01
			c38.11,1.68,51.05,39.94,45.75,74.94c-6.18,29.14-39.82,57.97-87.87,54.1c-50.37-4.06-74.79-35.71-96.04-72.61
			c-19.6-47.71-4.86-106.77,35.74-145.15c16.73-15.82,36.58-26.74,58.11-34.67c4.28-1.58,7.82-3.89,6.74-9.24
			c-0.91-4.52-5.63-6.83-11.23-5.72c-1.66,0.33-3.27,0.92-4.87,1.46c-20.58,7.04-38.64,18.34-54.91,32.63
			c-73.91,64.88-64.55,168.98-1.88,221.1c23.31,19.39,49.76,30.71,80.79,28.25C345.53,358.4,357.79,282.56,335.97,240.51z"/>
	</g>
</g>
</svg>
